Coordinates
version=1
nRows=32
nColumns=12
inDegrees=yes

Units are S.I. units (second, meters, Newtons, ...)
Angles are in degrees

endheader
time	SC_y	SC_z	SC_x	AC_y	AC_z	AC_x	GH_y	GH_z	GH_yy	EL_x	PS_y
       0.0               -50.5          16.02          18.25          49.53          9.316         -11.45          153.9          74.24         -36.46          17.72          77.22
   0.03265               -50.5          16.02          18.25          49.53          9.314         -11.45          153.9          74.24         -36.47          17.74          77.23
   0.06531              -50.49          16.02          18.26          49.53          9.312         -11.45          153.8          74.25         -36.49          17.75          77.23
   0.09796              -50.48          16.02          18.26          49.53          9.309         -11.45          153.8          74.25         -36.51          17.77          77.24
    0.1306              -50.48          16.02          18.27          49.53          9.307         -11.45          153.8          74.25         -36.53          17.78          77.25
    0.1633              -50.47          16.02          18.27          49.53          9.304         -11.45          153.7          74.25         -36.55           17.8          77.26
    0.1959              -50.46          16.02          18.28          49.53          9.301         -11.45          153.7          74.25         -36.57          17.82          77.27
    0.2286              -50.46          16.02          18.29          49.53          9.298         -11.45          153.6          74.25          -36.6          17.84          77.28
    0.2612              -50.45          16.02           18.3          49.53          9.295         -11.45          153.5          74.25         -36.62          17.86          77.29
    0.2939              -50.44          16.02          18.31          49.53          9.291         -11.45          153.5          74.25         -36.65          17.88           77.3
    0.3265              -50.43          16.01          18.31          49.53          9.287         -11.45          153.4          74.25         -36.68           17.9          77.31
    0.3592              -50.42          16.01          18.32          49.52          9.283         -11.45          153.3          74.25         -36.71          17.93          77.32
    0.3918              -50.41          16.01          18.33          49.52          9.279         -11.45          153.3          74.25         -36.74          17.96          77.34
    0.4245               -50.4          16.01          18.35          49.52          9.274         -11.45          153.2          74.25         -36.78          17.99          77.35
    0.4571              -50.38          16.01          18.36          49.52          9.269         -11.46          153.1          74.25         -36.82          18.02          77.37
    0.4898              -50.37          16.01          18.37          49.52          9.263         -11.46          153.0          74.25         -36.86          18.05          77.38
    0.5225              -50.36          16.01          18.38          49.52          9.257         -11.46          152.9          74.25         -36.91          18.09           77.4
    0.5551              -50.34           16.0           18.4          49.52           9.25         -11.46          152.7          74.25         -36.96          18.13          77.42
    0.5878              -50.32           16.0          18.42          49.52          9.243         -11.46          152.6          74.25         -37.01          18.18          77.45
    0.6204               -50.3           16.0          18.44          49.52          9.235         -11.46          152.5          74.25         -37.07          18.23          77.47
    0.6531              -50.28           16.0          18.46          49.52          9.226         -11.46          152.3          74.25         -37.14          18.28           77.5
    0.6857              -50.26          15.99          18.48          49.51          9.216         -11.46          152.1          74.25         -37.21          18.34          77.53
    0.7184              -50.23          15.99           18.5          49.51          9.206         -11.46          151.9          74.25          -37.3          18.41          77.56
     0.751               -50.2          15.99          18.53          49.51          9.194         -11.46          151.7          74.25         -37.39          18.48           77.6
    0.7837              -50.17          15.98          18.56          49.51           9.18         -11.46          151.5          74.25         -37.48          18.56          77.64
    0.8163              -50.13          15.98           18.6          49.51          9.166         -11.46          151.2          74.25          -37.6          18.65          77.68
     0.849              -50.09          15.97          18.63          49.51          9.149         -11.46          150.9          74.25         -37.72          18.75          77.73
    0.8816              -50.05          15.97          18.68           49.5          9.131         -11.46          150.6          74.25         -37.86          18.87          77.79
    0.9143               -50.0          15.96          18.73           49.5           9.11         -11.47          150.2          74.25         -38.02           19.0          77.86
    0.9469              -49.94          15.95          18.78           49.5          9.086         -11.47          149.8          74.25          -38.2          19.14          77.93
    0.9796              -49.87          15.94          18.84          49.49          9.059         -11.47          149.3          74.25         -38.41          19.31          78.01
     1.012               -49.8          15.93          18.92          49.49          9.028         -11.47          148.8          74.25         -38.64           19.5          78.11
